<svg width="32" height="32" viewBox="0 0 32 32" fill="none" xmlns="http://www.w3.org/2000/svg">
<circle cx="16.0388" cy="16.1078" r="13.8806" fill="white" stroke="#2277D9" stroke-width="3"/>
<path d="M16.7153 9.09386C16.7153 8.83891 16.614 8.5944 16.4338 8.41412C16.2535 8.23385 16.009 8.13257 15.754 8.13257C15.4991 8.13257 15.2546 8.23385 15.0743 8.41412C14.894 8.5944 14.7927 8.83891 14.7927 9.09386V14.8616H9.02501C8.77006 14.8616 8.52555 14.9629 8.34528 15.1431C8.165 15.3234 8.06372 15.5679 8.06372 15.8229C8.06372 16.0778 8.165 16.3223 8.34528 16.5026C8.52555 16.6829 8.77006 16.7842 9.02501 16.7842H14.7927V22.5519C14.7927 22.8068 14.894 23.0514 15.0743 23.2316C15.2546 23.4119 15.4991 23.5132 15.754 23.5132C16.009 23.5132 16.2535 23.4119 16.4338 23.2316C16.614 23.0514 16.7153 22.8068 16.7153 22.5519V16.7842H22.483C22.738 16.7842 22.9825 16.6829 23.1628 16.5026C23.3431 16.3223 23.4443 16.0778 23.4443 15.8229C23.4443 15.5679 23.3431 15.3234 23.1628 15.1431C22.9825 14.9629 22.738 14.8616 22.483 14.8616H16.7153V9.09386Z" fill="#2277D9"/>
</svg>
